<svg width="20" height="20" viewBox="0 0 20 20" fill="none" xmlns="http://www.w3.org/2000/svg">
<path fill-rule="evenodd" clip-rule="evenodd" d="M3.3335 20V7.42083H4.87766V5.52083C4.87766 2.4425 7.41933 0 10.4168 0C13.4135 0 15.956 2.44333 15.956 5.52V7.42083H17.5002V19.9092H3.3335V20ZM11.416 15.9275V13.665C11.8702 13.3033 12.1427 12.8508 12.1427 12.2175C12.1405 11.737 11.9481 11.2769 11.6077 10.9377C11.2673 10.5986 10.8065 10.4079 10.326 10.4075C9.32683 10.4075 8.50933 11.2217 8.50933 12.2175C8.50933 12.8508 8.78183 13.3933 9.236 13.665V15.9275H11.416ZM13.9585 7.42083V5.52083C13.9585 3.52917 12.3235 1.99083 10.4168 1.99083C8.41933 1.99083 6.87516 3.52917 6.87516 5.52V7.42083H13.9585Z" fill="white"/>
</svg>
