<svg width="52" height="52" viewBox="0 0 52 52" fill="none" xmlns="http://www.w3.org/2000/svg">
<path fill-rule="evenodd" clip-rule="evenodd" d="M0 0H52V52H0V0Z" fill="white"/>
<path d="M43.4099 26.207C44.1149 26.733 44.8499 27.104 44.8499 27.94C44.8499 28.188 44.5429 28.435 43.8699 28.435C43.3489 28.435 42.7969 28.28 42.5219 27.909C42.3069 27.631 42.6129 27.229 42.4299 26.949C42.2759 26.702 41.9699 26.826 41.7559 26.702C41.5109 26.547 41.4799 26.455 41.2959 26.083C41.1119 25.65 40.4689 24.938 39.7029 24.164C39.0599 23.514 38.3859 23.174 38.0789 23.205C37.8649 23.236 37.8039 23.236 37.5889 23.236C37.0379 23.236 36.5789 23.762 35.7819 24.103C35.2299 24.35 34.9239 24.473 34.5869 24.536L34.4639 24.691L35.1689 24.66C35.8429 24.66 36.7009 24.567 37.3749 24.567C38.0489 24.567 38.3849 25.186 38.6609 25.836C39.1819 27.136 39.9479 29.023 40.8979 30.602C41.3579 31.344 41.7249 31.809 41.7249 32.737C41.7249 33.016 41.6949 33.417 41.3269 33.417C40.8059 33.417 39.4889 32.861 39.4889 32.273C39.4889 31.809 39.8559 31.623 39.8559 31.159C39.8559 30.88 39.4269 30.911 39.3359 30.663C38.9979 29.271 38.5999 27.878 37.8339 27.043C37.4359 26.609 37.3739 26.423 36.9769 26.423C36.7619 26.423 36.5469 26.486 36.3639 26.547C35.2919 26.95 33.8519 28.187 32.0439 28.714C31.3699 28.93 31.2479 28.528 30.5439 28.652H30.6039C30.0219 28.776 29.5939 29.116 28.7969 29.332C27.7249 29.642 25.8559 29.797 24.3549 29.58C23.2829 29.426 21.9039 29.209 21.3219 29.24C20.8619 30.54 19.9119 32.273 18.4719 32.954C17.7069 33.294 17.4919 33.758 17.7069 34.624C17.9829 35.708 18.9319 36.482 19.4229 37.41C19.8829 38.184 20.6169 39.453 21.3829 39.855C22.1489 40.257 22.6389 40.845 22.6389 41.371C22.6389 41.619 22.5469 41.743 22.3019 41.743H20.7399C20.4949 41.743 20.3719 41.588 20.3419 41.495C20.1269 41.093 20.2799 40.722 19.9739 40.35C19.7599 40.103 19.6059 40.164 19.3309 39.948C18.8709 39.484 19.2079 39.236 18.8709 38.648C17.8909 37.07 17.4609 36.698 16.6349 35.553C16.1749 34.965 15.5929 34.656 15.5929 33.883C15.5929 32.923 16.5429 32.768 16.5129 31.809C15.8989 32.273 15.1949 32.613 14.0919 32.768C13.9389 32.798 13.5719 33.078 13.4179 33.263C13.0499 33.634 12.8979 34.037 12.8359 34.593C12.7129 35.893 12.4679 37.193 12.6219 38.493C12.8359 39.329 12.9889 39.607 13.6629 40.072C14.0919 40.35 14.5829 40.752 14.6429 41.372C14.6429 41.526 14.5829 41.742 14.3679 41.742H12.6829C12.5299 41.742 12.3759 41.619 12.3149 41.526C12.1309 41.186 12.2539 40.969 12.1619 40.566C12.0089 39.793 11.1199 39.824 11.1199 39.019C11.1199 38.772 11.2739 38.462 11.2739 37.967C11.3339 36.884 11.6409 35.089 11.3339 32.954C11.1819 31.716 12.4679 31.654 13.1419 30.571C13.5409 29.951 13.4179 30.199 13.6629 29.766C13.9079 29.302 13.8469 28.961 13.8159 28.683C13.8159 28.311 13.4489 27.569 13.6939 26.021C13.7859 25.341 14.1229 24.629 14.5819 24.041C14.5819 24.01 14.5819 23.917 14.4289 23.917C13.7549 23.979 13.7549 23.793 13.3259 23.793C12.8969 23.793 12.5599 24.164 12.4989 24.35C12.2849 24.257 12.1929 24.01 12.1929 23.886C12.1929 23.638 12.2529 23.422 12.4679 23.206C12.5599 23.112 12.4679 23.05 12.3459 23.05C11.8249 23.05 11.3349 23.7 11.2119 24.133C10.9059 24.072 10.8749 23.669 10.7519 23.669C10.5999 23.669 10.5079 23.886 10.5079 24.103C10.5079 25.619 12.9579 25.959 12.9579 27.971C12.9579 30.292 10.2009 29.797 10.2009 30.633C10.2009 30.787 10.3239 30.942 10.5379 31.035C10.4459 31.251 10.2009 31.345 9.95587 31.345C9.34387 31.345 8.88388 30.88 8.88388 30.261C8.88388 28.992 10.5689 28.961 10.5689 28.002C10.5689 27.538 10.2929 27.414 10.0179 27.197C8.42488 26.052 7.50488 24.907 7.50488 23.019C7.50488 20.977 8.91488 19.429 10.7219 19.429C13.3569 19.429 13.4489 22.524 15.8379 22.772C16.7269 22.152 17.7979 21.782 18.8399 21.782C20.4029 21.782 21.0769 22.184 22.7309 22.184C23.4049 22.184 24.5079 21.998 25.8249 21.07C26.3149 20.73 26.5299 20.667 26.9889 20.265C28.0309 19.368 29.0109 17.603 29.0109 16.335V16.397C29.0109 15.994 28.9189 15.747 28.7359 15.747C28.1839 15.747 27.6629 16.273 27.1119 16.83C26.7439 17.201 27.2959 17.387 26.4989 17.82C26.2239 17.975 25.8869 17.696 25.5799 17.696C24.9369 17.696 24.6609 16.923 24.6609 16.273C24.6609 15.933 24.9059 15.839 25.0589 15.53C25.3959 14.88 25.3659 14.633 25.6719 14.014C25.8559 13.58 26.1919 13.302 26.1619 12.992C26.1619 12.868 26.0699 12.807 26.0699 12.682C26.0699 12.032 26.9279 11.6 26.9279 10.95C26.9279 10.578 26.5299 10.424 26.4379 10.145C26.3459 9.867 26.4079 9.774 26.4079 9.774C26.4379 9.712 26.4679 9.712 26.5299 9.712C26.8669 9.712 26.9899 10.083 27.2959 10.269C27.3259 9.836 27.1729 9.743 27.1729 9.433C27.1729 9.279 27.1429 9 27.3259 9C27.5409 9 27.5099 9.279 27.6939 9.433C27.9389 9.619 28.1539 9.588 28.3989 9.773C28.7359 9.99 28.9189 10.362 29.0419 10.362C29.3789 10.424 29.4709 9.99 29.2869 9.774C29.6549 9.743 30.0529 10.052 30.5429 10.052C31.3089 10.052 31.5849 10.269 31.7379 10.392C32.2279 10.826 32.3199 11.166 32.8709 11.166C33.1469 11.166 33.3009 10.919 33.3609 10.826C33.7289 11.104 33.7599 11.816 33.3609 12.436C33.5149 12.93 34.2189 12.992 34.5559 13.24C34.8929 13.487 34.8319 13.611 35.0769 13.735C35.1475 13.7881 35.2335 13.8168 35.3219 13.8168C35.4102 13.8168 35.4962 13.7881 35.5669 13.735C35.7199 14.415 35.1689 15.004 34.4639 15.097C34.4949 15.963 35.3839 16.489 35.7819 16.706C35.5369 17.232 35.1079 17.386 34.7399 17.48C34.8629 18.006 35.4139 18.78 35.1379 19.46C34.8929 19.337 34.4949 19.46 34.4949 19.832C34.4949 20.265 35.0469 20.482 34.4649 20.792C34.2189 20.946 34.1579 21.317 34.6179 21.689C35.2299 21.534 35.8119 21.534 36.5169 21.534C36.9459 21.534 37.4969 21.41 37.8959 21.41C38.5999 21.41 39.0289 21.689 39.5499 22.277C40.8669 23.669 42.0619 25.186 43.4099 26.207Z" fill="#231F20"/>
<path d="M8.33318 22.4C8.60818 22.4 9.12919 20.822 10.2012 20.822C10.5082 20.822 10.5692 20.946 10.5692 21.07C10.5692 21.286 10.2012 21.472 10.2012 21.75C10.2012 21.812 10.2322 21.874 10.3242 21.874C10.5692 21.874 10.7842 21.286 11.8252 21.286C12.1012 21.286 12.3452 21.317 12.5912 21.379C12.7132 21.41 12.9592 21.534 12.8362 21.193C12.5912 20.451 11.7642 19.77 10.6302 19.77C9.49719 19.77 8.30218 20.791 8.18018 22.029C8.21018 22.246 8.21018 22.4 8.33318 22.4Z" fill="#6D6E70"/>
<path d="M27.9398 12.559C27.6328 12.435 27.5718 12.28 27.6938 11.879C27.7548 11.476 27.7858 11.29 27.6018 11.259C27.4488 11.197 27.2348 11.321 27.0198 11.538C26.8358 11.785 26.5298 12.126 26.4378 12.373C26.3458 12.713 26.7438 12.652 26.4678 13.209C25.9778 14.106 25.8558 14.323 25.6108 14.942C25.3958 15.622 25.2428 15.716 25.1208 15.932C24.9678 16.118 25.3048 16.149 25.6718 16.025C26.0698 15.87 26.1008 16.365 25.9478 16.706C25.8248 16.954 25.9178 17.046 26.2538 16.768C26.5608 16.52 26.1008 16.335 26.1928 15.561C26.3148 14.881 26.4378 14.478 26.8668 13.797C27.2348 13.209 27.5408 12.776 28.1538 12.992C28.3988 13.116 28.2758 12.714 27.9388 12.559" fill="#6D6E70"/>
<path d="M41.0818 32.83C41.2038 32.83 41.2348 32.675 41.2348 32.52C41.2348 32.18 41.0507 31.685 40.7747 31.468C40.7137 31.963 40.4688 32.304 40.4688 32.52C40.4688 32.675 40.9288 32.83 41.0818 32.83Z" fill="#6D6E70"/>
<path d="M44.023 28.033C44.206 28.033 44.483 27.971 44.483 27.816C44.483 27.538 44.053 27.043 43.686 26.919C43.931 27.414 43.686 28.033 44.023 28.033Z" fill="#6D6E70"/>
<path d="M31.0331 21.503C33.6991 22.741 33.5451 25 33.7601 24.443C33.9125 24.03 33.9475 23.5828 33.8609 23.1512C33.7744 22.7195 33.5699 22.3203 33.2701 21.998C32.5341 21.132 32.2591 21.348 32.5341 20.636C33.6991 17.789 34.4341 13.487 30.9411 12.002C30.5431 11.847 30.2061 11.847 30.2061 11.909C30.2061 11.971 30.5741 12.095 31.0331 12.404C33.3621 13.952 32.6261 18.192 30.5131 20.234C29.8391 20.946 30.1761 21.101 31.0331 21.503Z" fill="#6D6E70"/>
<path d="M21.9042 41.31C22.0882 41.31 21.9962 41.031 21.9342 40.907C21.7812 40.629 21.4752 40.443 21.1992 40.319C21.2612 40.598 21.2912 41.309 21.5672 41.309H21.9042" fill="#6D6E70"/>
<path d="M13.8468 41.31C14.0308 41.31 13.9078 41.031 13.8168 40.907C13.6628 40.629 13.3268 40.443 13.0498 40.319C13.1118 40.598 13.1728 41.309 13.4488 41.309H13.8468" fill="#6D6E70"/>
<path d="M23.6201 25.124C25.0901 24.969 25.3351 24.629 25.5801 23.514C25.7031 22.988 26.0701 22.431 26.4071 22.091C26.6221 21.843 26.8371 21.658 27.0511 21.317C27.1121 21.162 27.1731 21.07 27.0511 21.101C26.8981 21.224 26.3771 21.565 26.1621 21.72C25.1211 22.462 23.5281 22.803 22.9151 22.803C21.5671 22.803 20.4031 22.4 19.1771 22.4C15.5011 22.4 14.1231 25.31 14.3071 27.012C14.3371 27.29 14.3671 27.29 14.4601 27.29C14.7051 27.29 14.9501 26.3 15.8691 25.402C17.2171 24.102 18.6871 23.36 20.7701 23.36C22.2721 23.36 22.9151 23.855 22.9151 24.04C22.9151 24.412 22.2721 24.443 22.3331 24.814C22.3031 24.969 22.6391 25.248 23.6201 25.124Z" fill="#6D6E70"/>
</svg>
