<svg width="141" height="16" viewBox="0 0 141 16" fill="none" xmlns="http://www.w3.org/2000/svg">
<path fill-rule="evenodd" clip-rule="evenodd" d="M133.507 7.69199L140.377 0.627991H136.873L130.693 7.24799H130.632L130.628 0.627991H128.039L128.04 15.365H130.632V8.21499H130.692L137.278 15.365H140.956L133.507 7.69199Z" fill="white"/>
<path fill-rule="evenodd" clip-rule="evenodd" d="M124.915 0.627991H122.303L122.306 11.26H122.265L116.008 0.627991H112.615V15.365H115.15V4.38899H115.19L121.59 15.365H124.914L124.915 0.627991Z" fill="white"/>
<path fill-rule="evenodd" clip-rule="evenodd" d="M103.69 9.98799C102.924 9.99374 102.16 9.92609 101.407 9.78599L103.689 3.96099L105.972 9.78599C105.202 9.93499 104.483 9.98399 103.69 9.98799ZM103.689 12.232C104.77 12.227 105.848 12.127 106.787 11.869L108.157 15.365H111.224L104.824 0.627991H102.554L96.1538 15.365H99.2208L100.591 11.869C101.531 12.127 102.609 12.227 103.689 12.232Z" fill="white"/>
<path fill-rule="evenodd" clip-rule="evenodd" d="M92.5469 7.60099V7.55899C94.1199 7.09199 95.1219 5.99399 95.1219 4.26699C95.1219 1.66499 92.8119 0.627991 90.5839 0.627991H84.7979V15.365H90.1539C92.9339 15.366 95.7559 14.227 95.7559 11.178C95.7559 9.10499 94.4689 7.86499 92.5469 7.60099ZM87.4349 2.84299H89.5609C91.5439 2.84299 92.4849 3.31099 92.4849 4.61199C92.4849 5.89299 91.5439 6.62499 89.7859 6.62499H87.4349V2.84299ZM89.8059 13.15H87.4349V8.85999H89.9089C92.0149 8.85999 93.1189 9.40999 93.1189 10.914C93.1189 12.886 91.2169 13.15 89.8059 13.15Z" fill="white"/>
<path fill-rule="evenodd" clip-rule="evenodd" d="M71.7227 6.66498C70.3547 6.23798 69.5827 5.99498 69.0737 5.66898C68.5667 5.34398 68.4117 4.97798 68.4117 4.57098C68.4117 3.96098 68.7657 3.55498 69.2727 3.31098C69.7797 3.06698 70.5077 2.96598 71.1047 2.96598C72.0537 2.96598 73.1947 3.18698 74.3417 3.56098L75.2747 1.42098C74.1487 0.85098 72.6047 0.505981 71.1487 0.505981C69.6697 0.505981 68.3457 0.871982 67.3987 1.50198C66.2717 2.25398 65.6767 3.33198 65.6767 4.67398C65.6767 7.19398 67.8167 8.18998 69.9347 8.86098C70.8177 9.14598 71.7227 9.38898 72.3397 9.75498C72.9357 10.101 73.2897 10.568 73.2897 11.199C73.2897 11.889 72.8477 12.377 72.4287 12.622C71.9207 12.926 71.0827 13.068 70.2217 13.068C68.2357 13.068 66.8227 12.316 65.8317 11.605L64.8447 13.857C66.1017 14.799 68.2347 15.528 70.3757 15.528C73.6197 15.528 76.1137 13.821 76.1137 11.056C76.1137 8.57598 74.1047 7.41698 71.7227 6.66498Z" fill="white"/>
<path fill-rule="evenodd" clip-rule="evenodd" d="M56.1479 0.627991H51.7109V15.365H56.4339C60.8089 15.366 64.0389 12.296 64.0389 7.88499C64.0389 3.55499 60.9519 0.627991 56.1479 0.627991ZM56.4339 12.783H54.3899V3.20999H56.1689C59.2549 3.20999 61.2389 4.89699 61.2389 7.90599C61.2389 10.771 59.4389 12.783 56.4339 12.783Z" fill="white"/>
<path fill-rule="evenodd" clip-rule="evenodd" d="M43.0141 7.90397C44.6721 5.51097 45.8841 3.54197 46.8961 0.628967H50.0101C48.5531 4.30497 46.8351 7.17997 44.4091 10.497V15.365H41.6191V10.497C39.1921 7.17997 37.4741 4.30497 36.0181 0.628967H39.1321C40.1421 3.54197 41.3561 5.51097 43.0141 7.90397Z" fill="white"/>
<path fill-rule="evenodd" clip-rule="evenodd" d="M28.6801 0.471985C24.1491 0.471985 21.1421 3.82499 21.1421 8.02699C21.1421 12.168 24.0671 15.522 28.6181 15.522C33.1491 15.522 36.1361 12.168 36.1361 7.96598C36.1361 3.80498 33.1911 0.471985 28.6801 0.471985ZM28.6391 12.995C25.6321 12.995 23.9051 10.795 23.9051 7.98698C23.9051 5.19898 25.6321 2.99698 28.6181 2.99698C31.6461 2.99698 33.3721 5.25899 33.3721 8.02699C33.3721 10.794 31.6461 12.995 28.6391 12.995Z" fill="white"/>
<path fill-rule="evenodd" clip-rule="evenodd" d="M11.4399 15.365H19.7679L20.6739 12.743H14.1599V0.628967H11.4399V15.365Z" fill="white"/>
<path fill-rule="evenodd" clip-rule="evenodd" d="M0 15.365H8.327L9.234 12.743H2.719V0.628967H0V15.365Z" fill="white"/>
</svg>
