<svg width="52" height="60" viewBox="0 0 52 60" fill="none" xmlns="http://www.w3.org/2000/svg">
<path fill-rule="evenodd" clip-rule="evenodd" d="M26.3329 13.2803C28.0323 14.673 30.0023 16.4368 31.7248 18.9658C35.4756 24.4704 37.0875 31.3064 36.3856 38.7327L35.6345 38.6624C36.3203 31.413 34.7526 24.749 31.1014 19.3902C29.4626 16.9839 27.5814 15.2831 25.9436 13.937L26.0321 13.8645C24.3739 15.2221 22.4552 16.9396 20.786 19.3902C17.1347 24.748 15.567 31.413 16.2528 38.6624L15.5016 38.7327C14.7997 31.3054 16.4117 24.4704 20.1625 18.9658C21.8861 16.4358 23.855 14.672 25.5535 13.2803L25.9436 13.7562L26.3329 13.2803Z" fill="#649C00"/>
<path fill-rule="evenodd" clip-rule="evenodd" d="M12.6418 6.30091C12.8501 6.30091 13.0189 6.13208 13.0189 5.92382V1.51433C13.0189 1.30606 12.8501 1.13723 12.6418 1.13723C12.4335 1.13723 12.2647 1.30606 12.2647 1.51433V5.92382C12.2647 6.13208 12.4335 6.30091 12.6418 6.30091ZM6.18593 11.4586C6.39419 11.4586 6.56303 11.2897 6.56303 11.0815V6.67198C6.56303 6.46372 6.39419 6.29488 6.18593 6.29488C5.97764 6.29488 5.80884 6.46372 5.80884 6.67198V11.0815C5.80884 11.2897 5.97764 11.4586 6.18593 11.4586ZM19.0967 9.91197C19.3049 9.91197 19.4738 9.74314 19.4738 9.53488V5.12538C19.4738 4.91713 19.3049 4.74829 19.0967 4.74829C18.8884 4.74829 18.7196 4.91713 18.7196 5.12538V9.53488C18.7196 9.74314 18.8884 9.91197 19.0967 9.91197ZM25.1493 5.49644C25.3575 5.49644 25.5264 5.32761 25.5264 5.11935V0.709859C25.5264 0.501595 25.3575 0.332764 25.1493 0.332764C24.941 0.332764 24.7722 0.501595 24.7722 0.709859V5.11935C24.7722 5.32761 24.941 5.49644 25.1493 5.49644ZM32.5102 8.4227C32.7184 8.4227 32.8873 8.25386 32.8873 8.04561V3.63611C32.8873 3.42785 32.7184 3.25902 32.5102 3.25902C32.3019 3.25902 32.1331 3.42785 32.1331 3.63611V8.04561C32.1331 8.25386 32.3019 8.4227 32.5102 8.4227ZM39.3672 6.93644C39.5754 6.93644 39.7443 6.76761 39.7443 6.55935V2.14986C39.7443 1.94159 39.5754 1.77276 39.3672 1.77276C39.1591 1.77276 38.9901 1.94159 38.9901 2.14986V6.55935C38.9901 6.76761 39.1591 6.93644 39.3672 6.93644ZM46.6276 11.4636C46.8357 11.4636 47.0047 11.2948 47.0047 11.0865V6.677C47.0047 6.46875 46.8357 6.29991 46.6276 6.29991C46.4194 6.29991 46.2505 6.46875 46.2505 6.677V11.0865C46.2505 11.2948 46.4194 11.4636 46.6276 11.4636Z" fill="#649C00"/>
<path fill-rule="evenodd" clip-rule="evenodd" d="M26.5027 9.48071L26.5029 13.1819C39.5522 13.4345 50.3425 23.2926 51.7084 36.3125L51.8016 37.1974L50.9955 36.8203C49.1894 35.9746 47.2637 35.5452 45.2727 35.5452C41.8446 35.5452 38.6227 36.7952 36.1989 39.0668L35.8332 39.4097L35.4893 39.0437C33.132 36.5344 29.7867 35.0558 26.2576 34.9546V54.9959C26.2576 57.1238 27.9892 58.8554 30.117 58.8554C32.2448 58.8554 33.9766 57.1238 33.9766 54.9959H34.9822C34.9822 57.6788 32.7989 59.861 30.117 59.861C27.4351 59.861 25.252 57.6788 25.252 54.9959L25.2521 34.963C21.7759 35.1209 18.5024 36.6091 16.1929 39.101L15.847 39.474L15.478 39.1241C13.0475 36.8163 9.80546 35.5452 6.34926 35.5452C4.49898 35.5452 2.69596 35.9183 0.990486 36.6544L0.195068 36.9963L0.291605 36.1365C1.73748 23.21 12.5281 13.4236 25.497 13.1815L25.4971 9.48071H26.5027ZM25.9894 14.1825C13.5985 14.1825 3.17261 23.2499 1.39875 35.4105C2.98959 34.8323 4.65082 34.5396 6.34926 34.5396C9.89194 34.5396 13.2295 35.7845 15.8018 38.0572C18.4173 35.4376 22.0575 33.9433 25.8687 33.9433C29.6467 33.9433 33.2668 35.4165 35.8771 38.0009C38.4417 35.7654 41.7581 34.5396 45.2727 34.5396C47.1139 34.5396 48.9035 34.8815 50.6033 35.5553C48.8934 23.3102 38.4615 14.1825 25.9894 14.1825Z" fill="#006A4D"/>
</svg>
