<svg width="210" height="52" viewBox="0 0 210 52" fill="none" xmlns="http://www.w3.org/2000/svg">
<path fill-rule="evenodd" clip-rule="evenodd" d="M158 0H210V52H158V0Z" fill="white"/>
<path d="M201.41 26.207C202.115 26.733 202.85 27.104 202.85 27.94C202.85 28.188 202.543 28.435 201.87 28.435C201.349 28.435 200.797 28.28 200.522 27.909C200.307 27.631 200.613 27.229 200.43 26.949C200.276 26.702 199.97 26.826 199.756 26.702C199.511 26.547 199.48 26.455 199.296 26.083C199.112 25.65 198.469 24.938 197.703 24.164C197.06 23.514 196.386 23.174 196.079 23.205C195.865 23.236 195.804 23.236 195.589 23.236C195.038 23.236 194.579 23.762 193.782 24.103C193.23 24.35 192.924 24.473 192.587 24.536L192.464 24.691L193.169 24.66C193.843 24.66 194.701 24.567 195.375 24.567C196.049 24.567 196.385 25.186 196.661 25.836C197.182 27.136 197.948 29.023 198.898 30.602C199.358 31.344 199.725 31.809 199.725 32.737C199.725 33.016 199.695 33.417 199.327 33.417C198.806 33.417 197.489 32.861 197.489 32.273C197.489 31.809 197.856 31.623 197.856 31.159C197.856 30.88 197.427 30.911 197.336 30.663C196.998 29.271 196.6 27.878 195.834 27.043C195.436 26.609 195.374 26.423 194.977 26.423C194.762 26.423 194.547 26.486 194.364 26.547C193.292 26.95 191.852 28.187 190.044 28.714C189.37 28.93 189.248 28.528 188.544 28.652H188.604C188.022 28.776 187.594 29.116 186.797 29.332C185.725 29.642 183.856 29.797 182.355 29.58C181.283 29.426 179.904 29.209 179.322 29.24C178.862 30.54 177.912 32.273 176.472 32.954C175.707 33.294 175.492 33.758 175.707 34.624C175.983 35.708 176.932 36.482 177.423 37.41C177.883 38.184 178.617 39.453 179.383 39.855C180.149 40.257 180.639 40.845 180.639 41.371C180.639 41.619 180.547 41.743 180.302 41.743H178.74C178.495 41.743 178.372 41.588 178.342 41.495C178.127 41.093 178.28 40.722 177.974 40.35C177.76 40.103 177.606 40.164 177.331 39.948C176.871 39.484 177.208 39.236 176.871 38.648C175.891 37.07 175.461 36.698 174.635 35.553C174.175 34.965 173.593 34.656 173.593 33.883C173.593 32.923 174.543 32.768 174.513 31.809C173.899 32.273 173.195 32.613 172.092 32.768C171.939 32.798 171.572 33.078 171.418 33.263C171.05 33.634 170.898 34.037 170.836 34.593C170.713 35.893 170.468 37.193 170.622 38.493C170.836 39.329 170.989 39.607 171.663 40.072C172.092 40.35 172.583 40.752 172.643 41.372C172.643 41.526 172.583 41.742 172.368 41.742H170.683C170.53 41.742 170.376 41.619 170.315 41.526C170.131 41.186 170.254 40.969 170.162 40.566C170.009 39.793 169.12 39.824 169.12 39.019C169.12 38.772 169.274 38.462 169.274 37.967C169.334 36.884 169.641 35.089 169.334 32.954C169.182 31.716 170.468 31.654 171.142 30.571C171.541 29.951 171.418 30.199 171.663 29.766C171.908 29.302 171.847 28.961 171.816 28.683C171.816 28.311 171.449 27.569 171.694 26.021C171.786 25.341 172.123 24.629 172.582 24.041C172.582 24.01 172.582 23.917 172.429 23.917C171.755 23.979 171.755 23.793 171.326 23.793C170.897 23.793 170.56 24.164 170.499 24.35C170.285 24.257 170.193 24.01 170.193 23.886C170.193 23.638 170.253 23.422 170.468 23.206C170.56 23.112 170.468 23.05 170.346 23.05C169.825 23.05 169.335 23.7 169.212 24.133C168.906 24.072 168.875 23.669 168.752 23.669C168.6 23.669 168.508 23.886 168.508 24.103C168.508 25.619 170.958 25.959 170.958 27.971C170.958 30.292 168.201 29.797 168.201 30.633C168.201 30.787 168.324 30.942 168.538 31.035C168.446 31.251 168.201 31.345 167.956 31.345C167.344 31.345 166.884 30.88 166.884 30.261C166.884 28.992 168.569 28.961 168.569 28.002C168.569 27.538 168.293 27.414 168.018 27.197C166.425 26.052 165.505 24.907 165.505 23.019C165.505 20.977 166.915 19.429 168.722 19.429C171.357 19.429 171.449 22.524 173.838 22.772C174.727 22.152 175.798 21.782 176.84 21.782C178.403 21.782 179.077 22.184 180.731 22.184C181.405 22.184 182.508 21.998 183.825 21.07C184.315 20.73 184.53 20.667 184.989 20.265C186.031 19.368 187.011 17.603 187.011 16.335V16.397C187.011 15.994 186.919 15.747 186.736 15.747C186.184 15.747 185.663 16.273 185.112 16.83C184.744 17.201 185.296 17.387 184.499 17.82C184.224 17.975 183.887 17.696 183.58 17.696C182.937 17.696 182.661 16.923 182.661 16.273C182.661 15.933 182.906 15.839 183.059 15.53C183.396 14.88 183.366 14.633 183.672 14.014C183.856 13.58 184.192 13.302 184.162 12.992C184.162 12.868 184.07 12.807 184.07 12.682C184.07 12.032 184.928 11.6 184.928 10.95C184.928 10.578 184.53 10.424 184.438 10.145C184.346 9.867 184.408 9.774 184.408 9.774C184.438 9.712 184.468 9.712 184.53 9.712C184.867 9.712 184.99 10.083 185.296 10.269C185.326 9.836 185.173 9.743 185.173 9.433C185.173 9.279 185.143 9 185.326 9C185.541 9 185.51 9.279 185.694 9.433C185.939 9.619 186.154 9.588 186.399 9.773C186.736 9.99 186.919 10.362 187.042 10.362C187.379 10.424 187.471 9.99 187.287 9.774C187.655 9.743 188.053 10.052 188.543 10.052C189.309 10.052 189.585 10.269 189.738 10.392C190.228 10.826 190.32 11.166 190.871 11.166C191.147 11.166 191.301 10.919 191.361 10.826C191.729 11.104 191.76 11.816 191.361 12.436C191.515 12.93 192.219 12.992 192.556 13.24C192.893 13.487 192.832 13.611 193.077 13.735C193.148 13.7881 193.234 13.8168 193.322 13.8168C193.41 13.8168 193.496 13.7881 193.567 13.735C193.72 14.415 193.169 15.004 192.464 15.097C192.495 15.963 193.384 16.489 193.782 16.706C193.537 17.232 193.108 17.386 192.74 17.48C192.863 18.006 193.414 18.78 193.138 19.46C192.893 19.337 192.495 19.46 192.495 19.832C192.495 20.265 193.047 20.482 192.465 20.792C192.219 20.946 192.158 21.317 192.618 21.689C193.23 21.534 193.812 21.534 194.517 21.534C194.946 21.534 195.497 21.41 195.896 21.41C196.6 21.41 197.029 21.689 197.55 22.277C198.867 23.669 200.062 25.186 201.41 26.207Z" fill="#231F20"/>
<path d="M166.333 22.4C166.608 22.4 167.129 20.822 168.201 20.822C168.508 20.822 168.569 20.946 168.569 21.07C168.569 21.286 168.201 21.472 168.201 21.75C168.201 21.812 168.232 21.874 168.324 21.874C168.569 21.874 168.784 21.286 169.825 21.286C170.101 21.286 170.345 21.317 170.591 21.379C170.713 21.41 170.959 21.534 170.836 21.193C170.591 20.451 169.764 19.77 168.63 19.77C167.497 19.77 166.302 20.791 166.18 22.029C166.21 22.246 166.21 22.4 166.333 22.4Z" fill="#6D6E70"/>
<path d="M185.94 12.5589C185.633 12.4349 185.572 12.2799 185.694 11.8789C185.755 11.4759 185.786 11.2899 185.602 11.2589C185.449 11.1969 185.235 11.3209 185.02 11.5379C184.836 11.7849 184.53 12.1259 184.438 12.3729C184.346 12.7129 184.744 12.6519 184.468 13.2089C183.978 14.1059 183.856 14.3229 183.611 14.9419C183.396 15.6219 183.243 15.7159 183.121 15.9319C182.968 16.1179 183.305 16.1489 183.672 16.0249C184.07 15.8699 184.101 16.3649 183.948 16.7059C183.825 16.9539 183.918 17.0459 184.254 16.7679C184.561 16.5199 184.101 16.3349 184.193 15.5609C184.315 14.8809 184.438 14.4779 184.867 13.7969C185.235 13.2089 185.541 12.7759 186.154 12.9919C186.399 13.1159 186.276 12.7139 185.939 12.5589" fill="#6D6E70"/>
<path d="M199.082 32.83C199.204 32.83 199.235 32.675 199.235 32.52C199.235 32.18 199.051 31.685 198.775 31.468C198.714 31.963 198.469 32.304 198.469 32.52C198.469 32.675 198.929 32.83 199.082 32.83Z" fill="#6D6E70"/>
<path d="M202.023 28.0329C202.206 28.0329 202.483 27.9709 202.483 27.8159C202.483 27.5379 202.053 27.0429 201.686 26.9189C201.931 27.4139 201.686 28.0329 202.023 28.0329Z" fill="#6D6E70"/>
<path d="M189.033 21.5031C191.699 22.7411 191.545 25.0001 191.76 24.4431C191.913 24.0301 191.947 23.5829 191.861 23.1513C191.774 22.7196 191.57 22.3204 191.27 21.9981C190.534 21.1321 190.259 21.3481 190.534 20.6361C191.699 17.7891 192.434 13.4871 188.941 12.0021C188.543 11.8471 188.206 11.8471 188.206 11.9091C188.206 11.9711 188.574 12.0951 189.033 12.4041C191.362 13.9521 190.626 18.1921 188.513 20.2341C187.839 20.9461 188.176 21.1011 189.033 21.5031Z" fill="#6D6E70"/>
<path d="M179.904 41.3101C180.088 41.3101 179.996 41.0311 179.934 40.9071C179.781 40.6291 179.475 40.4431 179.199 40.3191C179.261 40.5981 179.291 41.3091 179.567 41.3091H179.904" fill="#6D6E70"/>
<path d="M171.847 41.3101C172.031 41.3101 171.908 41.0311 171.817 40.9071C171.663 40.6291 171.327 40.4431 171.05 40.3191C171.112 40.5981 171.173 41.3091 171.449 41.3091H171.847" fill="#6D6E70"/>
<path d="M181.62 25.124C183.09 24.969 183.335 24.629 183.58 23.514C183.703 22.988 184.07 22.431 184.407 22.091C184.622 21.843 184.837 21.658 185.051 21.317C185.112 21.162 185.173 21.07 185.051 21.101C184.898 21.224 184.377 21.565 184.162 21.72C183.121 22.462 181.528 22.803 180.915 22.803C179.567 22.803 178.403 22.4 177.177 22.4C173.501 22.4 172.123 25.31 172.307 27.012C172.337 27.29 172.367 27.29 172.46 27.29C172.705 27.29 172.95 26.3 173.869 25.402C175.217 24.102 176.687 23.36 178.77 23.36C180.272 23.36 180.915 23.855 180.915 24.04C180.915 24.412 180.272 24.443 180.333 24.814C180.303 24.969 180.639 25.248 181.62 25.124Z" fill="#6D6E70"/>
<path fill-rule="evenodd" clip-rule="evenodd" d="M133.507 26.22L140.377 19.156H136.873L130.693 25.776H130.632L130.628 19.156H128.039L128.04 33.893H130.632V26.743H130.692L137.278 33.893H140.956L133.507 26.22Z" fill="white"/>
<path fill-rule="evenodd" clip-rule="evenodd" d="M124.915 19.156H122.303L122.306 29.788H122.265L116.008 19.156H112.615V33.893H115.15V22.917H115.19L121.59 33.893H124.914L124.915 19.156Z" fill="white"/>
<path fill-rule="evenodd" clip-rule="evenodd" d="M103.69 28.516C102.924 28.5218 102.16 28.4541 101.407 28.314L103.689 22.489L105.972 28.314C105.202 28.463 104.483 28.512 103.69 28.516ZM103.689 30.76C104.77 30.755 105.848 30.655 106.787 30.397L108.157 33.893H111.224L104.824 19.156H102.554L96.1541 33.893H99.2211L100.591 30.397C101.531 30.655 102.609 30.755 103.689 30.76Z" fill="white"/>
<path fill-rule="evenodd" clip-rule="evenodd" d="M92.5471 26.129V26.087C94.1201 25.62 95.1221 24.522 95.1221 22.795C95.1221 20.193 92.8121 19.156 90.5841 19.156H84.7981V33.893H90.1541C92.9341 33.894 95.7561 32.755 95.7561 29.706C95.7561 27.633 94.4691 26.393 92.5471 26.129ZM87.4351 21.371H89.5611C91.5441 21.371 92.4851 21.839 92.4851 23.14C92.4851 24.421 91.5441 25.153 89.7861 25.153H87.4351V21.371ZM89.8061 31.678H87.4351V27.388H89.9091C92.0151 27.388 93.1191 27.938 93.1191 29.442C93.1191 31.414 91.2171 31.678 89.8061 31.678Z" fill="white"/>
<path fill-rule="evenodd" clip-rule="evenodd" d="M71.723 25.1929C70.355 24.7659 69.583 24.5229 69.074 24.1969C68.567 23.8719 68.412 23.5059 68.412 23.0989C68.412 22.4889 68.766 22.0829 69.273 21.8389C69.78 21.5949 70.508 21.4939 71.105 21.4939C72.054 21.4939 73.195 21.7149 74.342 22.0889L75.275 19.9489C74.149 19.3789 72.605 19.0339 71.149 19.0339C69.67 19.0339 68.346 19.3999 67.399 20.0299C66.272 20.7819 65.677 21.8599 65.677 23.2019C65.677 25.7219 67.817 26.7179 69.935 27.3889C70.818 27.6739 71.723 27.9169 72.34 28.2829C72.936 28.6289 73.29 29.0959 73.29 29.7269C73.29 30.4169 72.848 30.9049 72.429 31.1499C71.921 31.4539 71.083 31.5959 70.222 31.5959C68.236 31.5959 66.823 30.8439 65.832 30.1329L64.845 32.3849C66.102 33.3269 68.235 34.0559 70.376 34.0559C73.62 34.0559 76.114 32.3489 76.114 29.5839C76.114 27.1039 74.105 25.9449 71.723 25.1929Z" fill="white"/>
<path fill-rule="evenodd" clip-rule="evenodd" d="M56.1479 19.156H51.7109V33.893H56.4339C60.8089 33.894 64.0389 30.824 64.0389 26.413C64.0389 22.083 60.9519 19.156 56.1479 19.156ZM56.4339 31.311H54.3899V21.738H56.1689C59.2549 21.738 61.2389 23.425 61.2389 26.434C61.2389 29.299 59.4389 31.311 56.4339 31.311Z" fill="white"/>
<path fill-rule="evenodd" clip-rule="evenodd" d="M43.0141 26.432C44.6721 24.039 45.8841 22.07 46.8961 19.157H50.0101C48.5531 22.833 46.8351 25.708 44.4091 29.025V33.893H41.6191V29.025C39.1921 25.708 37.4741 22.833 36.0181 19.157H39.1321C40.1421 22.07 41.3561 24.039 43.0141 26.432Z" fill="white"/>
<path fill-rule="evenodd" clip-rule="evenodd" d="M28.6801 19C24.1491 19 21.1421 22.353 21.1421 26.555C21.1421 30.696 24.0671 34.05 28.6181 34.05C33.1491 34.05 36.1361 30.696 36.1361 26.494C36.1361 22.333 33.1911 19 28.6801 19ZM28.6391 31.523C25.6321 31.523 23.9051 29.323 23.9051 26.515C23.9051 23.727 25.6321 21.525 28.6181 21.525C31.6461 21.525 33.3721 23.787 33.3721 26.555C33.3721 29.322 31.6461 31.523 28.6391 31.523Z" fill="white"/>
<path fill-rule="evenodd" clip-rule="evenodd" d="M11.4399 33.893H19.7679L20.6739 31.271H14.1599V19.157H11.4399V33.893Z" fill="white"/>
<path fill-rule="evenodd" clip-rule="evenodd" d="M0 33.893H8.327L9.234 31.271H2.719V19.157H0V33.893Z" fill="white"/>
</svg>
