<svg width="28" height="28" viewBox="0 0 28 28" fill="none" xmlns="http://www.w3.org/2000/svg">
<path fill-rule="evenodd" clip-rule="evenodd" d="M13.9988 5.523C12.5755 5.523 12.1403 6.25683 12.1403 7.35817V7.54133C12.1403 8.666 12.5755 9.40217 13.9988 9.40217C15.4222 9.40217 15.8585 8.66717 15.8585 7.54133V7.35817C15.8585 6.25683 15.421 5.523 13.9988 5.523ZM14 0C6.27083 0 0 6.2685 0 14C0 21.735 6.27083 28 14 28C21.7338 28 28 21.7315 28 14C28 6.2685 21.735 0 14 0ZM12.3002 22.2927H15.6742V11.1592H12.3002V22.2927Z" fill="#0D5595"/>
</svg>
